<svg viewBox="0 0 512 512" xmlns="http://www.w3.org/2000/svg"><g data-name="1"><path d="M255.13 385.54a15 15 0 0 1-11.14-5L103.67 224.93a15 15 0 0 1 11.14-25H171V63a15 15 0 0 1 15-15h138.3a15 15 0 0 1 15 15v136.89h56.16a15 15 0 0 1 11.14 25L266.27 380.58a15 15 0 0 1-11.14 4.96Zm-106.6-155.65 106.6 118.25 106.61-118.25H324.3a15 15 0 0 1-15-15V78H201v136.89a15 15 0 0 1-15 15Z" fill="#149063" class="fill-000000"></path><path d="M390.84 450H119.43a65.37 65.37 0 0 1-65.3-65.29v-38.17a15 15 0 0 1 30 0v38.17a35.34 35.34 0 0 0 35.3 35.29h271.41a35.33 35.33 0 0 0 35.29-35.29v-38.17a15 15 0 0 1 30 0v38.17A65.37 65.37 0 0 1 390.84 450Z" fill="#149063" class="fill-000000"></path></g></svg>
